<svg width="38" height="38" viewBox="0 0 38 38" fill="none" xmlns="http://www.w3.org/2000/svg">
<path fill-rule="evenodd" clip-rule="evenodd" d="M29.1635 33.1146L27.1067 34.3015C26.918 34.4108 26.7027 34.466 26.4847 34.4609C26.2666 34.4558 26.0542 34.3906 25.8708 34.2726C25.6873 34.1546 25.54 33.9882 25.445 33.7919C25.35 33.5955 25.3111 33.3768 25.3324 33.1597L26.3175 22.9978C26.3356 22.8096 26.3984 22.6286 26.5007 22.4696C26.603 22.3106 26.7417 22.1784 26.9054 22.0839C27.0691 21.9894 27.2531 21.9353 27.4419 21.9262C27.6307 21.9172 27.8189 21.9533 27.9909 22.0317L37.284 26.2593C37.4825 26.3496 37.6522 26.4928 37.7746 26.6733C37.8969 26.8537 37.9673 27.0643 37.9778 27.2821C37.9884 27.4999 37.9387 27.7163 37.8343 27.9077C37.73 28.0991 37.5749 28.2581 37.3861 28.3672L35.3305 29.554L37.1108 32.6387C37.3482 33.0438 37.5033 33.4918 37.5669 33.9571C37.6305 34.4223 37.6014 34.8955 37.4814 35.3495C37.3614 35.8035 37.1528 36.2292 36.8675 36.6022C36.5823 36.9753 36.2261 37.2882 35.8194 37.523C35.4128 37.7577 34.9637 37.9098 34.498 37.9703C34.0324 38.0308 33.5594 37.9986 33.1062 37.8756C32.653 37.7526 32.2287 37.5411 31.8576 37.2534C31.4865 36.9657 31.1759 36.6075 30.9438 36.1993L29.1635 33.1146ZM34.2018 27.4651L28.5203 24.8802L27.9173 31.0934L29.0045 30.4655C29.2771 30.3082 29.6011 30.2655 29.9051 30.347C30.2091 30.4284 30.4684 30.6273 30.6258 30.8999L32.9995 35.0124C33.158 35.2828 33.417 35.4795 33.72 35.5596C34.023 35.6397 34.3454 35.5967 34.6168 35.44C34.8882 35.2833 35.0866 35.0256 35.1688 34.7231C35.2509 34.4207 35.21 34.098 35.0551 33.8255L32.6814 29.7131C32.524 29.4405 32.4814 29.1165 32.5628 28.8125C32.6443 28.5084 32.8432 28.2492 33.1158 28.0918L34.2018 27.4651ZM21.9249 27.7013L23.9805 26.5145C24.2533 26.3571 24.4523 26.0978 24.5339 25.7936C24.6155 25.4895 24.5729 25.1654 24.4155 24.8926C24.2581 24.6199 23.9988 24.4208 23.6947 24.3392C23.3905 24.2577 23.0664 24.3003 22.7937 24.4576L20.738 25.6445C20.4676 25.803 20.2709 26.062 20.1908 26.365C20.1107 26.668 20.1537 26.9904 20.3104 27.2618C20.4671 27.5332 20.7248 27.7317 21.0273 27.8138C21.3298 27.8959 21.6524 27.8562 21.9249 27.7013ZM32.2043 21.767L34.2599 20.5802C34.5327 20.4228 34.7317 20.1635 34.8133 19.8593C34.8949 19.5552 34.8523 19.2311 34.6949 18.9583C34.5375 18.6856 34.2782 18.4865 33.9741 18.4049C33.6699 18.3234 33.3458 18.3659 33.0731 18.5233L31.0174 19.7102C30.747 19.8687 30.5503 20.1277 30.4702 20.4307C30.3901 20.7337 30.4331 21.0561 30.5898 21.3275C30.7465 21.5989 31.0042 21.7974 31.3067 21.8795C31.6092 21.9616 31.9318 21.9219 32.2043 21.767ZM26.1537 18.407L24.9668 16.3514C24.8083 16.081 24.5493 15.8843 24.2463 15.8042C23.9433 15.7241 23.6209 15.7671 23.3495 15.9238C23.0781 16.0805 22.8796 16.3382 22.7975 16.6407C22.7154 16.9431 22.7563 17.2658 22.9112 17.5382L24.098 19.5939C24.2565 19.8643 24.5155 20.061 24.8185 20.1411C25.1215 20.2212 25.4439 20.1782 25.7154 20.0215C25.9868 19.8648 26.1852 19.6071 26.2673 19.3046C26.3494 19.0021 26.3086 18.6795 26.1537 18.407ZM2.37372 10.6817V3.56058C2.37372 3.24581 2.49877 2.94392 2.72135 2.72135C2.94392 2.49877 3.24581 2.37372 3.56058 2.37372C3.87536 2.37372 4.17724 2.49877 4.39982 2.72135C4.6224 2.94392 4.74744 3.24581 4.74744 3.56058V10.6817C4.74744 10.9965 4.87249 11.2984 5.09507 11.521C5.31765 11.7436 5.61953 11.8686 5.9343 11.8686C6.24908 11.8686 6.55096 11.7436 6.77354 11.521C6.99612 11.2984 7.12116 10.9965 7.12116 10.6817V3.56058C7.12116 2.61626 6.74603 1.71061 6.07829 1.04287C5.41056 0.375132 4.50491 0 3.56058 0C2.61626 0 1.71061 0.375132 1.04287 1.04287C0.375132 1.71061 0 2.61626 0 3.56058L0 10.6817C0 10.9965 0.125044 11.2984 0.347623 11.521C0.570203 11.7436 0.872086 11.8686 1.18686 11.8686C1.50164 11.8686 1.80352 11.7436 2.0261 11.521C2.24868 11.2984 2.37372 10.9965 2.37372 10.6817ZM2.37372 23.7372V15.4292C2.37372 15.1144 2.24868 14.8125 2.0261 14.59C1.80352 14.3674 1.50164 14.2423 1.18686 14.2423C0.872086 14.2423 0.570203 14.3674 0.347623 14.59C0.125044 14.8125 0 15.1144 0 15.4292L0 23.7372C0 24.052 0.125044 24.3539 0.347623 24.5765C0.570203 24.799 0.872086 24.9241 1.18686 24.9241C1.50164 24.9241 1.80352 24.799 2.0261 24.5765C2.24868 24.3539 2.37372 24.052 2.37372 23.7372Z" fill="white"/>
<path fill-rule="evenodd" clip-rule="evenodd" d="M1.18686 7.71454H5.34087C5.65565 7.71454 5.95753 7.5895 6.18011 7.36692C6.40269 7.14434 6.52773 6.84246 6.52773 6.52768C6.52773 6.21291 6.40269 5.91102 6.18011 5.68844C5.95753 5.46586 5.65565 5.34082 5.34087 5.34082H1.18686C0.872086 5.34082 0.570203 5.46586 0.347623 5.68844C0.125044 5.91102 0 6.21291 0 6.52768C0 6.84246 0.125044 7.14434 0.347623 7.36692C0.570203 7.5895 0.872086 7.71454 1.18686 7.71454ZM7.12116 17.8029C7.12116 18.7472 6.74603 19.6528 6.07829 20.3206C5.41056 20.9883 4.50491 21.3634 3.56058 21.3634H1.18686C0.872086 21.3634 0.570203 21.2384 0.347623 21.0158C0.125044 20.7932 0 20.4914 0 20.1766V15.4291C0 15.1144 0.125044 14.8125 0.347623 14.5899C0.570203 14.3673 0.872086 14.2423 1.18686 14.2423H3.56058C4.50491 14.2423 5.41056 14.6174 6.07829 15.2851C6.74603 15.9529 7.12116 16.8585 7.12116 17.8029ZM4.74744 17.8029C4.74744 17.4881 4.6224 17.1862 4.39982 16.9636C4.17724 16.741 3.87536 16.616 3.56058 16.616H2.37372V18.9897H3.56058C3.87536 18.9897 4.17724 18.8647 4.39982 18.6421C4.6224 18.4195 4.74744 18.1176 4.74744 17.8029Z" fill="white"/>
<path fill-rule="evenodd" clip-rule="evenodd" d="M7.125 32.6C7.125 34.0322 6.74967 35.4057 6.08157 36.4184C5.41347 37.4311 4.50733 38 3.5625 38H1.1875C0.872555 38 0.57051 37.8104 0.347811 37.4728C0.125111 37.1352 0 36.6774 0 36.2V29C0 28.5226 0.125111 28.0648 0.347811 27.7272C0.57051 27.3896 0.872555 27.2 1.1875 27.2H3.5625C4.50733 27.2 5.41347 27.7689 6.08157 28.7816C6.74967 29.7943 7.125 31.1678 7.125 32.6ZM4.75 32.6C4.75 32.1226 4.62489 31.6648 4.40219 31.3272C4.17949 30.9896 3.87744 30.8 3.5625 30.8H2.375V34.4H3.5625C3.87744 34.4 4.17949 34.2104 4.40219 33.8728C4.62489 33.5352 4.75 33.0774 4.75 32.6ZM20.1863 29C20.1863 27.5678 19.811 26.1943 19.1429 25.1816C18.4748 24.1689 17.5686 23.6 16.6238 23.6H13.0613C12.1165 23.6 11.2103 24.1689 10.5422 25.1816C9.87415 26.1943 9.49881 27.5678 9.49881 29C9.49881 30.4322 9.87415 31.8057 10.5422 32.8184C11.2103 33.8311 12.1165 34.4 13.0613 34.4H16.6238C17.5686 34.4 18.4748 33.8311 19.1429 32.8184C19.811 31.8057 20.1863 30.4322 20.1863 29ZM17.8113 29C17.8113 29.4774 17.6862 29.9352 17.4635 30.2728C17.2408 30.6104 16.9388 30.8 16.6238 30.8H13.0613C12.7464 30.8 12.4443 30.6104 12.2216 30.2728C11.9989 29.9352 11.8738 29.4774 11.8738 29C11.8738 28.5226 11.9989 28.0648 12.2216 27.7272C12.4443 27.3896 12.7464 27.2 13.0613 27.2H16.6238C16.9388 27.2 17.2408 27.3896 17.4635 27.7272C17.6862 28.0648 17.8113 28.5226 17.8113 29ZM38 7.4C38 5.96783 37.6247 4.59432 36.9566 3.58162C36.2885 2.56893 35.3823 2 34.4375 2H13.0625C12.5946 1.99953 12.1312 2.13888 11.6988 2.41009C11.2665 2.6813 10.8736 3.07904 10.5427 3.58057C10.2119 4.0821 9.94947 4.67758 9.77054 5.33295C9.59162 5.98832 9.49969 6.69073 9.5 7.4C9.5 8.83217 9.87533 10.2057 10.5434 11.2184C11.2115 12.2311 12.1177 12.8 13.0625 12.8H34.4375C34.9054 12.8005 35.3688 12.6611 35.8012 12.3899C36.2335 12.1187 36.6264 11.721 36.9573 11.2194C37.2881 10.7179 37.5505 10.1224 37.7295 9.46705C37.9084 8.81168 38.0003 8.10927 38 7.4ZM35.625 7.4C35.6252 7.63645 35.5945 7.87062 35.5349 8.08911C35.4753 8.30761 35.3878 8.50613 35.2775 8.67332C35.1672 8.84051 35.0363 8.97309 34.8921 9.06347C34.748 9.15384 34.5935 9.20024 34.4375 9.2H13.0625C12.7476 9.2 12.4455 9.01036 12.2228 8.67279C12.0001 8.33523 11.875 7.87739 11.875 7.4C11.8748 7.16356 11.9055 6.92938 11.9651 6.71089C12.0247 6.4924 12.1122 6.29387 12.2225 6.12668C12.3328 5.95949 12.4637 5.82691 12.6079 5.73654C12.752 5.64616 12.9065 5.59976 13.0625 5.6H34.4375C34.7524 5.6 35.0545 5.78964 35.2772 6.12721C35.4999 6.46478 35.625 6.92261 35.625 7.4Z" fill="white"/>
</svg>
