<svg width="39" height="35" viewBox="0 0 39 35" fill="none" xmlns="http://www.w3.org/2000/svg">
<path d="M37.674 3.98423L25.974 0.0977431H25.8375C25.7467 0.0886518 25.6553 0.0886518 25.5645 0.0977431H25.116H24.8625H24.726L13.65 3.88707L2.57401 0.0977431C2.28075 0.00138051 1.96873 -0.0242047 1.66362 0.0230929C1.35851 0.0703905 1.06903 0.189219 0.819006 0.369798C0.566985 0.548608 0.361273 0.784609 0.218864 1.0583C0.0764555 1.332 0.00143706 1.63553 6.50039e-06 1.94383V29.1493C-0.00104876 29.5567 0.126403 29.9541 0.364348 30.2853C0.602293 30.6166 0.938695 30.865 1.32601 30.9953L13.026 34.8818C13.4188 35.0095 13.8422 35.0095 14.235 34.8818L25.35 31.1897L36.426 34.979C36.633 35.007 36.8429 35.007 37.05 34.979C37.4577 34.9847 37.8557 34.8548 38.181 34.6098C38.433 34.431 38.6387 34.195 38.7811 33.9213C38.9235 33.6476 38.9986 33.3441 39 33.0358V5.83032C39.0011 5.42293 38.8736 5.02551 38.6357 4.69424C38.3977 4.36297 38.0613 4.1146 37.674 3.98423ZM11.7 30.3346L3.90001 27.7501V4.64494L11.7 7.22945V30.3346ZM23.4 27.7501L15.6 30.3346V7.22945L23.4 4.64494V27.7501ZM35.1 30.3346L27.3 27.7501V4.64494L35.1 7.22945V30.3346Z" fill="white"/>
</svg>
