<svg width="35" height="35" viewBox="0 0 35 35" fill="none" xmlns="http://www.w3.org/2000/svg">
<path d="M29.75 0H5.25C3.85761 0 2.52226 0.553116 1.53769 1.53767C0.553124 2.52222 0 3.85756 0 5.24993V22.7497C0 24.1421 0.553124 25.4774 1.53769 26.4619C2.52226 27.4465 3.85761 27.9996 5.25 27.9996H25.5325L32.0075 34.492C32.171 34.6542 32.3649 34.7825 32.5782 34.8696C32.7914 34.9567 33.0197 35.0008 33.25 34.9995C33.4796 35.0054 33.7073 34.9575 33.915 34.8595C34.2346 34.7282 34.5082 34.5053 34.7012 34.2188C34.8943 33.9323 34.9983 33.595 35 33.2495V5.24993C35 3.85756 34.4469 2.52222 33.4623 1.53767C32.4777 0.553116 31.1424 0 29.75 0ZM31.5 29.0321L27.4925 25.0072C27.329 24.845 27.1351 24.7166 26.9218 24.6296C26.7086 24.5425 26.4803 24.4983 26.25 24.4997H5.25C4.78587 24.4997 4.34075 24.3153 4.01256 23.9871C3.68437 23.6589 3.5 23.2138 3.5 22.7497V5.24993C3.5 4.7858 3.68437 4.34069 4.01256 4.01251C4.34075 3.68432 4.78587 3.49995 5.25 3.49995H29.75C30.2141 3.49995 30.6592 3.68432 30.9874 4.01251C31.3156 4.34069 31.5 4.7858 31.5 5.24993V29.0321Z" fill="white"/>
</svg>
