<svg xmlns="http://www.w3.org/2000/svg" width="27.724" height="26.99" viewBox="0 0 27.724 26.99">
  <path id="icons8_github_1" d="M14.862,1A13.839,13.839,0,0,0,10.48,27.974a1.1,1.1,0,0,0,1.183-1.116c0-.325.008-.716,0-1.866C7.806,25.825,6.6,23.126,6.6,23.126a4.2,4.2,0,0,0-1.4-2.058c-1.258-.858.092-.833.092-.833A2.859,2.859,0,0,1,7.4,21.526c1.066,1.866,3.474,1.683,4.265,1.333A3.8,3.8,0,0,1,11.988,21c-4.357-.766-6.731-3.282-6.723-6.764A6.74,6.74,0,0,1,7.131,9.4a4.038,4.038,0,0,1,.183-4.132,5.679,5.679,0,0,1,4.107,1.858A9.356,9.356,0,0,1,14.854,6.6a9.714,9.714,0,0,1,3.432.5A5.734,5.734,0,0,1,22.4,5.265a4.263,4.263,0,0,1,.283,4.09,6.815,6.815,0,0,1,1.774,4.882c0,3.482-2.366,6-6.714,6.756a3.431,3.431,0,0,1,.317,1.866v4a1.1,1.1,0,0,0,1.191,1.116A13.841,13.841,0,0,0,14.862,1Z" transform="translate(-1 -1)" fill="#3c0e4e"/>
</svg>
