<svg xmlns="http://www.w3.org/2000/svg" width="26.99" height="26.99" viewBox="0 0 26.99 26.99">
  <path id="icons8_Instagram_1" d="M8.834,1A7.85,7.85,0,0,0,1,8.834v11.33A7.848,7.848,0,0,0,8.834,27.99h11.33a7.848,7.848,0,0,0,7.826-7.834V8.834A7.85,7.85,0,0,0,20.156,1Zm0,2.076H20.156a5.739,5.739,0,0,1,5.758,5.758V20.156a5.737,5.737,0,0,1-5.75,5.758H8.834a5.737,5.737,0,0,1-5.758-5.75V8.834A5.739,5.739,0,0,1,8.834,3.076ZM22.8,5.152A1.038,1.038,0,1,0,23.838,6.19,1.035,1.035,0,0,0,22.8,5.152ZM14.5,7.229A7.267,7.267,0,1,0,21.762,14.5,7.286,7.286,0,0,0,14.5,7.229Zm0,2.076A5.19,5.19,0,1,1,9.3,14.5,5.175,5.175,0,0,1,14.5,9.3Z" transform="translate(-1 -1)" fill="#3c0e4e"/>
</svg>
