<svg width="41" height="39" viewBox="0 0 41 39" fill="none" xmlns="http://www.w3.org/2000/svg">
<path d="M0 7C0 3.13401 3.13401 0 7 0H33.6957C37.5616 0 40.6957 3.13401 40.6957 7V32C40.6957 35.866 37.5616 39 33.6957 39H7C3.134 39 0 35.866 0 32V7Z" fill="#02A86A"/>
<path d="M9.67536 17.662L14.064 22.0508C14.4982 22.485 15.1904 22.5181 15.6632 22.1279L27.404 12.4444L17.7208 24.1845C17.3307 24.6574 17.3637 25.3506 17.798 25.7838L22.1866 30.1726C22.8027 30.7887 23.8497 30.5561 24.1473 29.7372L31.2956 10.078C31.6406 9.12799 30.7203 8.20658 29.7703 8.55266L10.1107 15.7012C9.29182 15.9988 9.05927 17.0459 9.67536 17.662Z" fill="white"/>
</svg>
