<svg xmlns="http://www.w3.org/2000/svg" width="112.817" height="112.875" viewBox="0 0 112.817 112.875">
  <g id="Groupe_65" data-name="Groupe 65" transform="translate(-1554.889 -839.809)">
    <g id="Untitled-3" transform="translate(1554.789 839.849)">
      <path id="Tracé_6" data-name="Tracé 6" d="M254.356,172.46l-1.18.5.7,4.987c.191,1.23.349,2.335.573,3.4h0c-.524-.889-1.205-1.853-1.9-2.809l-2.992-4.1-1.213.507.69,4.987c.183,1.288.341,2.493.573,3.416h0c-.515-.831-1.222-1.82-1.953-2.826l-2.959-4.089-1.23.507,6.026,8.02,1.205-.507-.673-5.2a31.406,31.406,0,0,0-.524-3.216h0a29.793,29.793,0,0,0,1.8,2.685l3.083,4.156,1.213-.507Z" transform="translate(-214.088 -170.455)" fill="#231f20"/>
      <path id="Tracé_7" data-name="Tracé 7" d="M262.368,181.176l-.831-4.156,1.155-.233c1.122-.191,1.729.2,2.286,1.463a11.635,11.635,0,0,0,1.1,2.136l1.28-.216a16.031,16.031,0,0,1-1.263-2.493,2.419,2.419,0,0,0-1.787-1.662h0a2.552,2.552,0,0,0,1.3-2.793,2.419,2.419,0,0,0-1.114-1.662,3.973,3.973,0,0,0-2.909-.216,13.716,13.716,0,0,0-2.319.673l1.912,9.392Zm-.54-8.885c1.3-.258,2.3.1,2.552,1.33.224,1.089-.465,1.978-1.779,2.244l-1.255.258-.723-3.433a4.8,4.8,0,0,1,1.188-.4Z" transform="translate(-216.756 -170.237)" fill="#231f20"/>
      <path id="Tracé_8" data-name="Tracé 8" d="M271.153,176.782l3.441-.133,1.155,3.017,1.338-.05L273.4,170l-1.513.058L269,179.973l1.3-.05Zm1.064-3.831c.158-.6.3-1.2.416-1.779h0c.166.557.332,1.13.573,1.754l1.056,2.759-2.926.108Z" transform="translate(-218.401 -170.04)" fill="#231f20"/>
      <path id="Tracé_9" data-name="Tracé 9" d="M281.244,176.076a5.121,5.121,0,0,0,1,.208,4.056,4.056,0,0,0,3.067-.706,2.9,2.9,0,0,0,1-1.978,2.61,2.61,0,0,0-.607-2.111,3.964,3.964,0,0,0-2.61-1.13,15.275,15.275,0,0,0-2.41-.1l-1.139,9.533,1.247.141Zm.573-4.762a5.494,5.494,0,0,1,1.189,0c1.371.166,2.194.889,2.045,2.161s-1.164,1.953-2.668,1.77a4.455,4.455,0,0,1-1.014-.216Z" transform="translate(-220.181 -170.082)" fill="#231f20"/>
      <path id="Tracé_10" data-name="Tracé 10" d="M79.7,10.933l5.278,1.421.274-1.022-4.064-1.089L82.1,6.861l3.649.981.266-1.006-3.649-.981.8-2.967,3.856,1.039L87.3,2.913,82.235,1.55Z" transform="translate(-13.442 -0.269)" fill="#231f20"/>
      <path id="Tracé_11" data-name="Tracé 11" d="M307.073,177.663l-2.435,1.8c-.657.5-1.238.923-1.762,1.371h0V178.6l-.05-3.009-1.28-.623.291,6.375L300,185.027l1.139.557,1.82-3.715,5.377-3.574Z" transform="translate(-223.636 -170.879)" fill="#231f20"/>
      <path id="Tracé_12" data-name="Tracé 12" d="M314.6,188.767c1.662-2.352,1.446-4.987-.715-6.541s-4.854-.964-6.649,1.554c-1.7,2.394-1.388,5.062.706,6.549S312.673,191.493,314.6,188.767Zm-5.992.765c-1.612-1.139-1.454-3.325-.249-4.987s3.191-2.7,4.887-1.5,1.355,3.441.241,4.987c-1.28,1.812-3.258,2.651-4.879,1.5Z" transform="translate(-224.673 -171.96)" fill="#231f20"/>
      <path id="Tracé_13" data-name="Tracé 13" d="M325.678,192.823l-.881-.914-4.156,3.989c-1.546,1.5-2.867,1.488-3.865.457s-.914-2.269.657-3.782l4.156-4-.881-.906-4.156,3.973c-2.161,2.086-1.945,3.956-.557,5.386s3.433,1.8,5.577-.274Z" transform="translate(-226.159 -173.024)" fill="#231f20"/>
      <path id="Tracé_14" data-name="Tracé 14" d="M325.311,201.853c.607.964.49,1.662-.457,2.676a13.157,13.157,0,0,0-1.546,1.845l.74,1.072a14.375,14.375,0,0,1,1.77-2.128,2.427,2.427,0,0,0,.831-2.294h.042a2.551,2.551,0,0,0,3.075.108,2.493,2.493,0,0,0,1.089-1.662,3.973,3.973,0,0,0-.939-2.759,13.016,13.016,0,0,0-1.521-1.912l-7.9,5.427.715,1.039,3.466-2.385Zm3.034-3.524a5.2,5.2,0,0,1,.831.956c.74,1.1.831,2.161-.233,2.867s-2,.349-2.759-.756l-.731-1.056Z" transform="translate(-227.096 -174.566)" fill="#231f20"/>
      <path id="Tracé_15" data-name="Tracé 15" d="M119.14,43.454l.507,1.164,7.929-3.441,1.18,2.726.981-.432-2.867-6.591-.972.424,1.172,2.709Z" transform="translate(-20.103 -6.235)" fill="#231f20"/>
      <path id="Tracé_16" data-name="Tracé 16" d="M122.7,54.7l1.014-.283-1.13-4.056,3.374-.939,1.014,3.64,1-.274-1.006-3.64,2.959-.823,1.064,3.848L132,51.9l-1.4-5.062-9.358,2.6Z" transform="translate(-20.458 -7.917)" fill="#231f20"/>
      <path id="Tracé_17" data-name="Tracé 17" d="M331.24,226.31l.174,1.43,2.261.906a21.805,21.805,0,0,0,2.045.831h0c-.524.366-1.014.748-1.77,1.346l-1.978,1.488.175,1.446,4.588-3.607,5.045,2.36-.175-1.43-2.419-1.056c-.657-.283-1.13-.474-1.737-.673v-.042c.49-.324.939-.657,1.529-1.089l2.1-1.546-.174-1.446-4.422,3.408Z" transform="translate(-228.912 -179.367)" fill="#231f20"/>
      <path id="Tracé_18" data-name="Tracé 18" d="M132.778,65.46l-.083,2.95-8.644-.249-.042,1.272,8.644.249-.083,2.967,1.064.033.208-7.189Z" transform="translate(-20.925 -11.061)" fill="#231f20"/>
      <path id="Tracé_19" data-name="Tracé 19" d="M131.318,80.782l-8.453-1.853-.266,1.238,8.444,1.853-.632,2.892,1.039.233,1.538-7.023-1.047-.233Z" transform="translate(-20.687 -13.16)" fill="#231f20"/>
      <path id="Tracé_20" data-name="Tracé 20" d="M120.724,85.634l4.239,1.679-1.729,4.372L119,90.005l-.465,1.18,9.034,3.574.465-1.18-3.782-1.5,1.737-4.372,3.773,1.5.465-1.172L121.19,84.47Z" transform="translate(-20 -14.272)" fill="#231f20"/>
      <rect id="Rectangle_44" data-name="Rectangle 44" width="1.255" height="9.716" transform="matrix(0.481, -0.877, 0.877, 0.481, 97.068, 79.336)" fill="#231f20"/>
      <path id="Tracé_21" data-name="Tracé 21" d="M329.665,271.191c-1.13-.781-2.36-.44-3.723.54-1.164.831-1.887.931-2.635.407a1.783,1.783,0,0,1-.208-2.61,4.454,4.454,0,0,1,1.8-1.488l-.682-.831a4.987,4.987,0,0,0-1.92,1.662c-1.3,1.887-.831,3.541.366,4.388s2.3.573,3.757-.416c1.188-.831,1.887-1.039,2.635-.524a1.569,1.569,0,0,1,.158,2.335,3.881,3.881,0,0,1-1.429,1.255l.648.831a4.43,4.43,0,0,0,1.612-1.5C331.119,273.684,330.9,272.022,329.665,271.191Z" transform="translate(-227.27 -186.456)" fill="#231f20"/>
      <path id="Tracé_22" data-name="Tracé 22" d="M225.191,208.253l-6.882-7.613-.632,1.13,2.186,2.369-1.662,3.009-3.175-.573-.657,1.164,10.106,1.837Zm-1.33.1c-.557-.15-1.13-.3-1.787-.424l-2.909-.524,1.421-2.56,1.995,2.2c.424.449.831.873,1.3,1.28Z" transform="translate(-209.175 -175.214)" fill="#231f20"/>
      <path id="Tracé_23" data-name="Tracé 23" d="M213.521,217.837a2.4,2.4,0,0,0,2.327-.682h.042a2.568,2.568,0,0,0,1.712,2.568,2.493,2.493,0,0,0,1.995-.091,4,4,0,0,0,1.662-2.377,13.148,13.148,0,0,0,.623-2.335l-9.018-3.25-.424,1.18,3.956,1.421-.4,1.114c-.424,1.056-1.08,1.371-2.435,1.189a12.633,12.633,0,0,0-2.4-.175l-.44,1.222a14.585,14.585,0,0,1,2.8.216Zm3.383-2.02.432-1.205,3.325,1.205a4.654,4.654,0,0,1-.308,1.205c-.465,1.247-1.288,1.912-2.493,1.488A1.926,1.926,0,0,1,216.9,215.817Z" transform="translate(-208.559 -177.077)" fill="#231f20"/>
      <path id="Tracé_24" data-name="Tracé 24" d="M213.3,230.6c2.842.5,5.136-.831,5.593-3.457s-1.213-4.787-4.255-5.319c-2.892-.507-5.161.931-5.6,3.457S210.006,230.023,213.3,230.6Zm-3.266-5.07c.332-1.945,2.36-2.734,4.4-2.377s3.815,1.712,3.457,3.757-2.493,2.71-4.422,2.377C211.295,228.9,209.691,227.479,210.031,225.526Z" transform="translate(-208.261 -178.774)" fill="#231f20"/>
      <path id="Tracé_25" data-name="Tracé 25" d="M218.014,240.384l-4.064.066a34.9,34.9,0,0,0-3.989.208h0a26.3,26.3,0,0,0,3.125-1.8l4.87-3.192V234.3l-9.716.158v1.18l4.156-.066c1.612,0,2.784-.066,4.006-.158v.042a30.224,30.224,0,0,0-3.216,1.87l-4.879,3.158v1.272l9.708-.224Z" transform="translate(-208.14 -180.899)" fill="#231f20"/>
      <path id="Tracé_26" data-name="Tracé 26" d="M215.223,253.362a4.5,4.5,0,0,0,3.15-2.028,5.577,5.577,0,0,0,.407-4.1,17.086,17.086,0,0,0-.723-2.576l-9.367,1.878a19.821,19.821,0,0,0,.341,2.261,5.968,5.968,0,0,0,2.211,3.931,5.161,5.161,0,0,0,3.981.632Zm-5.161-4.521a8.85,8.85,0,0,1-.175-1.263l7.48-1.5a6.59,6.59,0,0,1,.416,1.413c.524,2.6-.648,4.156-2.892,4.6C212.347,252.6,210.61,251.467,210.061,248.841Z" transform="translate(-208.216 -182.648)" fill="#231f20"/>
      <path id="Tracé_27" data-name="Tracé 27" d="M215.836,266.035c-1-2.144-.183-4.031,1.97-5.028,2.319-1.072,4.272-.316,5.228,1.754a4.555,4.555,0,0,1,.457,1.945l1.056-.158a5.2,5.2,0,0,0-.573-2.269,4.837,4.837,0,0,0-6.765-2.493,4.542,4.542,0,0,0-2.435,6.425,5.992,5.992,0,0,0,1.5,2.128l.79-.648a5.028,5.028,0,0,1-1.222-1.654Z" transform="translate(-209.154 -185.107)" fill="#231f20"/>
      <rect id="Rectangle_45" data-name="Rectangle 45" width="9.716" height="1.255" transform="translate(7.974 85.175) rotate(-31.4)" fill="#231f20"/>
      <path id="Tracé_28" data-name="Tracé 28" d="M226.467,275.852a2.56,2.56,0,0,0,3.083-.066,2.418,2.418,0,0,0,.989-1.729,3.964,3.964,0,0,0-1.08-2.709,13.092,13.092,0,0,0-1.662-1.787l-7.6,5.818.765,1,3.324-2.568.723.931c.665.931.582,1.662-.308,2.693a12.472,12.472,0,0,0-1.438,1.928l.79,1.031a14.963,14.963,0,0,1,1.662-2.219,2.435,2.435,0,0,0,.682-2.327Zm-.6-1.579-.781-1.014,2.809-2.169a5.407,5.407,0,0,1,.831.914c.831,1.056.914,2.111-.075,2.876s-1.97.457-2.8-.607Z" transform="translate(-210.16 -186.853)" fill="#231f20"/>
      <path id="Tracé_29" data-name="Tracé 29" d="M236.372,280.189a4.38,4.38,0,0,1,1.147,1.662l.923-.532a5.2,5.2,0,0,0-1.38-1.9,4.837,4.837,0,0,0-7.189.216,4.549,4.549,0,0,0,.108,6.873,6.2,6.2,0,0,0,2.178,1.43l.5-.906a4.987,4.987,0,0,1-1.762-1.114c-1.72-1.621-1.662-3.674,0-5.4C232.607,278.635,234.709,278.618,236.372,280.189Z" transform="translate(-211.537 -188.265)" fill="#231f20"/>
      <path id="Tracé_30" data-name="Tracé 30" d="M245.489,285.551l-3.183,4.812c-1.189,1.8-2.493,2.069-3.69,1.272s-1.371-2.02-.166-3.831l3.183-4.787-1.056-.706-3.167,4.729c-1.662,2.493-1.056,4.289.607,5.386s3.74,1.014,5.394-1.471l3.133-4.721Z" transform="translate(-212.9 -189.006)" fill="#231f20"/>
      <path id="Tracé_31" data-name="Tracé 31" d="M42.316,118.274l-1.139-.524-4.048,8.827,4.912,2.252.44-.956-3.773-1.737Z" transform="translate(-6.253 -19.892)" fill="#231f20"/>
      <path id="Tracé_32" data-name="Tracé 32" d="M56.951,123l-6.973-1.745-.258,1.031,2.859.723-2.094,8.386,1.23.308,2.1-8.386,2.876.715Z" transform="translate(-8.38 -20.483)" fill="#231f20"/>
      <path id="Tracé_33" data-name="Tracé 33" d="M57.67,133.008l5.427.582.116-1.047-4.181-.449.374-3.482,3.748.4.116-1.031-3.757-.4.324-3.05,3.973.424.108-1.047-5.211-.557Z" transform="translate(-9.722 -20.838)" fill="#231f20"/>
      <path id="Tracé_34" data-name="Tracé 34" d="M288.124,292.17l-6.981,1.355-1.321.05-1.23,2.327c-.341.64-.565,1.1-.831,1.662h0c-.283-.507-.573-.981-.964-1.6l-1.371-2.219-1.454.058,3.042,4.679-2.768,5.028,1.446-.058,1.08-2.178a19.954,19.954,0,0,0,.972-1.97h0c.324.549.665,1.064,1.205,1.87l1.321,2.094,1.455-.058-3.225-4.862,2.61-4.579.158.831,2.9-.565,1.662,8.494,1.247-.241-1.662-8.494,2.909-.565Z" transform="translate(-219.24 -190.672)" fill="#231f20"/>
    </g>
    <path id="Polygone_3" data-name="Polygone 3" d="M43,23.54a1,1,0,0,1,2,0L45.685,39.7a1,1,0,0,0,1.59.765l13.054-9.554a1,1,0,0,1,1.248,1.561L49.37,43.108a1,1,0,0,0,.393,1.718l15.618,4.281a1,1,0,0,1-.446,1.948L49.016,48.12a1,1,0,0,0-1.1,1.378L54.3,64.368a1,1,0,0,1-1.8.865L44.882,50.969a1,1,0,0,0-1.764,0L35.5,65.234a1,1,0,0,1-1.8-.865L40.084,49.5a1,1,0,0,0-1.1-1.378L23.065,51.055a1,1,0,0,1-.446-1.948l15.618-4.281a1,1,0,0,0,.393-1.718L26.424,32.469a1,1,0,0,1,1.248-1.561l13.054,9.554a1,1,0,0,0,1.59-.765Z" transform="translate(1567 853)" fill="#3c0e4e"/>
  </g>
</svg>
